<svg xmlns="http://www.w3.org/2000/svg" viewBox="0 0 420 520" role="img" aria-labelledby="title">
  <title id="title">Essence Studio perfume bottle illustration</title>
  <defs>
    <linearGradient id="glass" x1="0" y1="0" x2="1" y2="1"><stop stop-color="#fff" stop-opacity=".94"/><stop offset=".45" stop-color="#e9efe6" stop-opacity=".77"/><stop offset="1" stop-color="#bfd0ba" stop-opacity=".84"/></linearGradient>
    <linearGradient id="liquid" x1="0" y1="0" x2="0" y2="1"><stop stop-color="#dce3c8"/><stop offset="1" stop-color="#a9b795"/></linearGradient>
    <linearGradient id="cap" x1="0" y1="0" x2="1" y2="0"><stop stop-color="#a28d61"/><stop offset=".5" stop-color="#e8d7a3"/><stop offset="1" stop-color="#8f7d55"/></linearGradient>
    <filter id="shadow"><feGaussianBlur stdDeviation="15"/></filter>
  </defs>
  <ellipse cx="214" cy="475" rx="129" ry="24" fill="#244336" opacity=".22" filter="url(#shadow)"/>
  <rect x="151" y="61" width="118" height="87" rx="9" fill="url(#cap)" stroke="#9e8b61" stroke-width="3"/>
  <rect x="170" y="140" width="80" height="20" rx="4" fill="#c4b889"/>
  <rect x="71" y="151" width="278" height="310" rx="23" fill="url(#glass)" stroke="#fff" stroke-width="8"/>
  <rect x="85" y="265" width="250" height="183" rx="13" fill="url(#liquid)" opacity=".75"/>
  <path d="M97 174h15v253H97z" fill="#fff" opacity=".53"/>
  <path d="M317 177h10v245h-10z" fill="#809784" opacity=".28"/>
  <rect x="107" y="225" width="206" height="157" rx="2" fill="#f8f6e9" opacity=".95"/>
  <text x="210" y="270" text-anchor="middle" font-family="Georgia,serif" font-size="15" letter-spacing="5" fill="#34483a">ESSENCE</text>
  <text x="210" y="294" text-anchor="middle" font-family="Georgia,serif" font-size="10" letter-spacing="6" fill="#65806d">STUDIO</text>
  <path d="M166 311h88" stroke="#bbc6b4"/>
  <text x="210" y="340" text-anchor="middle" font-family="Georgia,serif" font-style="italic" font-size="20" fill="#34483a">imaginari</text>
  <text x="210" y="362" text-anchor="middle" font-family="sans-serif" font-size="7" letter-spacing="3" fill="#70816f">EAU DE PARFUM</text>
</svg>
